mastitorrents.com
  
http://mastitorrents.com/forums/index.php
  
http://thepiratebay.se/user/HDvideos/0/7

Rebel (2012) Telugu 1CD CAMRip XviD

General 
Complete name : E:MoviesRebel(2012) CAM.avi 
Format : AVI 
Format/Info : Audio Video Interleave 
File size : 705 MiB 
Duration : 2h 35mn 
Overall bit rate : 633 Kbps 

Video 
ID : 0 
Format : MPEG-4 Visual 
Format profile : Advanced Simple@L5 
Format settings, BVOP : 2 
Format settings, QPel : No 
Format settings, GMC : No warppoints 
Format settings, Matrix : Default (MPEG) 
Codec ID : XVID 
Codec ID/Hint : XviD 
Duration : 2h 35mn 
Bit rate : 499 Kbps 
Width : 720 pixels 
Height : 320 pixels 
Display aspect ratio : 2.25:1 
Frame rate : 23.976 fps 
Color space : YUV 
Chroma subsampling : 4:2:0 
Bit depth : 8 bits 
Scan type : Progressive 
Compression mode : Lossy 
Bits/(Pixel*Frame) : 0.090 
Stream size : 556 MiB (79%) 
Writing library : XviD 1.2.1 (UTC 2008-12-04) 

Audio 
ID : 1 
Format : MPEG Audio 
Format version : Version 1 
Format profile : Layer 3 
Mode : Joint stereo 
Mode extension : MS Stereo 
Codec ID : 55 
Codec ID/Hint : MP3 
Duration : 2h 35mn 
Bit rate mode : Constant 
Bit rate : 128 Kbps 
Channel(s) : 2 channels 
Sampling rate : 48.0 KHz 
Compression mode : Lossy 
Stream size : 143 MiB (20%) 
Alignment : Aligned on interleaves 
Interleave, duration : 167 ms (4.00 video frames) 
Interleave, preload duration : 216 ms 
Title : VTS_01_1 Tc0 L2 2ch 48 224 DELAY 0ms 
Writing library : LAME3.99r 
Encoding settings : -m j -V 4 -q 2 -lowpass 17 -b 128 